<svg width="62" height="24" viewBox="0 0 62 24" fill="none" xmlns="http://www.w3.org/2000/svg">
<path d="M28.7413 11.6726V18.7486H26.4805V1.2749H32.474C33.993 1.2749 35.2882 1.77783 36.348 2.78368C37.4313 3.78952 37.9729 5.01759 37.9729 6.46788C37.9729 7.95326 37.4313 9.18133 36.348 10.1755C35.3 11.1696 34.0047 11.6609 32.474 11.6609H28.7413V11.6726ZM28.7413 3.42695V9.52051H32.5211C33.416 9.52051 34.1696 9.21642 34.7583 8.61993C35.3589 8.02343 35.665 7.29829 35.665 6.47957C35.665 5.67256 35.3589 4.95911 34.7583 4.36262C34.1696 3.74274 33.4278 3.43864 32.5211 3.43864H28.7413V3.42695Z" fill="#FFFFFF"/>
<path d="M43.8845 6.39746C45.5566 6.39746 46.8754 6.8419 47.8409 7.73079C48.8065 8.61968 49.2893 9.83606 49.2893 11.3799V18.7483H47.1344V17.0875H47.0402C46.11 18.4559 44.8618 19.1343 43.3075 19.1343C41.9769 19.1343 40.8701 18.7483 39.9752 17.9647C39.0803 17.1811 38.6328 16.2103 38.6328 15.0407C38.6328 13.801 39.1038 12.8185 40.0458 12.0934C40.9878 11.3565 42.2478 10.9939 43.8139 10.9939C45.1562 10.9939 46.2631 11.2396 47.1227 11.7308V11.2162C47.1227 10.4325 46.8165 9.77757 46.1924 9.22787C45.5683 8.67816 44.8383 8.40915 44.0023 8.40915C42.7423 8.40915 41.7414 8.93547 41.0114 9.9998L39.0214 8.76003C40.1165 7.18108 41.7414 6.39746 43.8845 6.39746ZM40.9643 15.0758C40.9643 15.6606 41.2116 16.1518 41.7179 16.5378C42.2124 16.9238 42.8012 17.1226 43.4724 17.1226C44.4262 17.1226 45.274 16.7717 46.0158 16.07C46.7576 15.3682 47.1344 14.5495 47.1344 13.6021C46.4279 13.0524 45.4506 12.7717 44.1907 12.7717C43.2722 12.7717 42.5068 12.9939 41.8945 13.4267C41.2704 13.8828 40.9643 14.4325 40.9643 15.0758Z" fill="#FFFFFF"/>
<path d="M61.581 6.78369L54.045 24.0001H51.7135L54.516 17.9767L49.5469 6.78369H52.0079L55.5875 15.3685H55.6346L59.12 6.78369H61.581Z" fill="#FFFFFF"/>
<path d="M19.7509 10.2456C19.7509 9.51343 19.685 8.81284 19.5625 8.13916H10.0859V11.9988L15.5437 12C15.3223 13.2842 14.6099 14.3789 13.5184 15.1087V17.6128H16.7671C18.6641 15.869 19.7509 13.2912 19.7509 10.2456Z" fill="#4285F4"/>
<path d="M13.5205 15.1085C12.6161 15.7144 11.4516 16.0688 10.0892 16.0688C7.45749 16.0688 5.22493 14.3074 4.4254 11.9331H1.07422V14.5156C2.7345 17.7881 6.14692 20.0337 10.0892 20.0337C12.814 20.0337 15.103 19.1436 16.7692 17.6115L13.5205 15.1085Z" fill="#34A853"/>
<path d="M4.10832 10.0175C4.10832 9.35081 4.22018 8.70637 4.42389 8.10052V5.51807H1.07271C0.386221 6.87128 0 8.39877 0 10.0175C0 11.6362 0.387398 13.1637 1.07271 14.5169L4.42389 11.9344C4.22018 11.3286 4.10832 10.6841 4.10832 10.0175Z" fill="#FABB05"/>
<path d="M10.0892 3.96491C11.5764 3.96491 12.9082 4.47368 13.9597 5.46783L16.8387 2.61052C15.0901 0.992982 12.8104 0 10.0892 0C6.1481 0 2.7345 2.24561 1.07422 5.51812L4.4254 8.10058C5.22493 5.72631 7.45749 3.96491 10.0892 3.96491Z" fill="#E94235"/>
</svg>
